<svg xmlns="http://www.w3.org/2000/svg" viewBox="0 0 900.56 960">
  <defs>
    <style>
      .a {
        fill: #0ba0ea;
      }

      .b {
        fill: #0293dc;
      }

      .c {
        isolation: isolate;
      }

      .d {
        fill: #004;
      }

      .e {
        fill: #8d0000;
      }

      .f {
        fill: #000042;
      }

      .g {
        fill: #000043;
      }

      .h {
        fill: #00003c;
      }

      .i {
        fill: #8e0000;
      }

      .j {
        fill: #d00;
      }

      .k {
        fill: maroon;
      }

      .l {
        fill: #000051;
      }

      .m {
        fill: #000047;
      }

      .n {
        fill: #ab0000;
      }

      .o {
        fill: #000050;
      }

      .p {
        fill: #900000;
      }

      .q {
        fill: #000067;
      }
    </style>
  </defs>
  <title>logo-1</title>
  <polygon class="a" points="900.56 161 900.56 800.2 450 960 450 0 900.56 161" />
  <polygon class="b" points="0 161 0 800.2 450.56 960 450.56 0 0 161" />
  <g class="c">
    <polygon class="d" points="369.35 603.61 404.27 560.8 424.8 560.8 400.15 603.61 369.35 603.61" />
    <polygon class="d" points="277.02 603.61 342.71 560.8 363.03 560.8 307.5 603.61 277.02 603.61" />
    <polygon class="d" points="754.6 603.61 661.1 560.8 681.41 560.8 785.07 603.61 754.6 603.61" />
    <polygon class="e" points="419.41 517.41 437.64 503.34 424.8 560.8 400.15 603.61 419.41 517.41" />
    <polygon class="f" points="429.02 529.42 444.05 511.34 431.21 568.8 409.77 615.6 429.02 529.42" />
    <polygon class="g" points="419.41 517.41 437.64 503.34 524.04 503.34 549.01 517.41 419.41 517.41" />
    <polygon class="f" points="395.7 485.68 421.83 482.18 404.27 560.8 369.35 603.61 395.7 485.68" />
    <polygon class="h" points="549.01 517.41 524.04 503.34 528.77 482.18 556.1 485.68 549.01 517.41" />
    <polygon class="i" points="395.7 485.68 421.83 482.18 528.77 482.18 556.1 485.68 395.7 485.68" />
    <polygon class="j"
      points="369.35 603.61 395.7 485.68 556.1 485.68 549.01 517.41 419.41 517.41 400.15 603.61 369.35 603.61" />
    <polygon class="h" points="785.07 603.61 681.41 560.8 716.8 402.41 838.15 366.02 785.07 603.61" />
    <polygon class="k" points="754.6 603.61 661.1 560.8 685.59 451.15 791.35 439.14 754.6 603.61" />
    <polygon class="h" points="739.62 615.6 651.11 568.8 672.75 471.94 772.08 470.32 739.62 615.6" />
    <polygon class="h" points="676.53 532.7 609.05 513.52 685.59 451.15 791.35 439.14 676.53 532.7" />
    <polygon class="k" points="688.28 488.53 616.88 484.08 716.8 402.41 838.15 366.02 688.28 488.53" />
    <polygon class="h" points="690.18 471.47 618.15 472.71 729.65 381.57 857.43 334.77 690.18 471.47" />
    <polygon class="h" points="688.28 488.53 616.88 484.08 552.26 401.14 591.35 364.12 688.28 488.53" />
    <polygon class="k" points="676.53 532.7 609.05 513.52 545.54 431.21 581.27 409.22 676.53 532.7" />
    <polygon class="k" points="581.27 409.22 545.54 431.21 552.26 401.14 591.35 364.12 581.27 409.22" />
    <polygon class="h" points="674.56 549.78 607.74 524.91 536.91 433.13 568.33 412.1 674.56 549.78" />
    <polygon class="l" points="103.69 409.22 227.16 431.21 290.67 513.52 198.96 532.7 103.69 409.22" />
    <polygon class="m" points="113.77 364.12 233.88 401.14 227.16 431.21 103.69 409.22 113.77 364.12" />
    <polygon class="n" points="113.77 364.12 233.88 401.14 298.5 484.08 210.7 488.53 113.77 364.12" />
    <polygon class="o" points="107.61 336.68 229.77 382.85 299.78 472.71 212.62 471.47 107.61 336.68" />
    <polygon class="h" points="360.58 366.02 398.42 402.41 298.5 484.08 210.7 488.53 360.58 366.02" />
    <polygon class="k" points="313.77 439.14 367.21 451.15 290.67 513.52 198.96 532.7 313.77 439.14" />
    <polygon class="h" points="294.51 470.32 354.37 471.94 289.35 524.91 196.99 549.78 294.51 470.32" />
    <polygon class="g" points="313.77 439.14 367.21 451.15 342.71 560.8 277.02 603.61 313.77 439.14" />
    <polygon class="p" points="360.58 366.02 398.42 402.41 363.03 560.8 307.5 603.61 360.58 366.02" />
    <polygon class="g" points="379.86 334.77 411.27 381.57 369.44 568.8 317.11 615.6 379.86 334.77" />
    <path class="q"
      d="M444.1,675.6l31.71-141.93h185l-12.46,55.75H518.74L499.49,675.6ZM645.82,545.68H485.42L459.07,663.61h30.8l19.26-86.2h129.6l7.09-31.73"
      transform="translate(-89.72 -60)" />
    <polygon class="h" points="571.07 399.82 538.74 424.94 540.53 416.94 573.75 387.81 571.07 399.82" />
    <polygon class="h" points="598.01 353.14 556.7 393.82 552.16 387.99 591.2 344.4 598.01 353.14" />
    <polygon class="h" points="573.75 387.81 540.53 416.94 545.21 395.99 580.78 356.39 573.75 387.81" />
    <polygon class="h" points="580.78 356.39 545.21 395.99 547 387.99 583.46 344.4 580.78 356.39" />
    <polygon class="h" points="583.46 344.4 547 387.99 548.15 382.85 585.18 336.68 583.46 344.4" />
    <polygon class="h" points="580.77 356.39 545.21 395.99 446.01 395.99 431.97 356.39 580.77 356.39" />
    <polygon class="k" points="573.75 387.81 540.53 416.94 462.12 416.94 456.13 387.81 573.75 387.81" />
    <polygon class="k" points="456.13 387.81 462.12 416.94 446.01 395.99 431.97 356.39 456.13 387.81" />
    <polygon class="h" points="571.07 399.82 538.74 424.94 458.18 424.94 450.22 399.82 571.07 399.82" />
    <polygon class="h" points="568.33 412.1 536.91 433.13 538.74 424.94 571.07 399.82 568.33 412.1" />
    <polygon class="j"
      points="591.35 364.12 688.28 488.53 838.15 366.02 785.07 603.61 754.6 603.61 791.35 439.14 676.53 532.7 581.27 409.22 591.35 364.12" />
    <polygon class="j"
      points="113.77 364.12 210.7 488.53 360.58 366.02 307.5 603.61 277.02 603.61 313.77 439.14 198.96 532.7 103.69 409.22 113.77 364.12" />
    <polygon class="j" points="431.97 356.39 580.78 356.39 573.75 387.81 456.13 387.81 431.97 356.39" />
    <polygon class="h" points="450.22 399.82 458.18 424.94 429.76 387.99 407.59 344.4 450.22 399.82" />
    <polygon class="q"
      points="450.22 399.82 407.59 344.4 583.46 344.4 580.77 356.39 431.97 356.39 456.13 387.81 573.75 387.81 571.07 399.82 450.22 399.82" />
    <polygon class="q" points="591.2 344.4 599.96 344.4 598.01 353.14 591.2 344.4" />
    <path class="q"
      d="M779.9,531.47l167.25-136.7L884.4,675.6H829.34l32.45-145.28-97.51,79.46L658,472.1l2.75-12.28,2.68-12,7-31.42,2.69-12,1.72-7.72,6,7.72,6.81,8.74Zm94.89,132.14L927.87,426,778,548.53,681.07,424.12,671,469.22,766.25,592.7l114.81-93.56L844.32,663.61h30.47"
      transform="translate(-89.72 -60)" />
    <path class="q"
      d="M302.34,531.47l167.23-136.7L406.83,675.6H351.76l32.47-145.28L286.7,609.78,180.47,472.1l16.85-75.42Zm94.87,132.14L450.3,426,300.42,548.53,203.49,424.12l-10.08,45.1L288.67,592.7l114.82-93.56L366.74,663.61h30.47"
      transform="translate(-89.72 -60)" />
  </g>
</svg>