<svg xmlns="http://www.w3.org/2000/svg" viewBox="0 0 903.53 960">
  <defs>
    <style>
      .a {
        fill: #fff;
      }

      .b {
        fill: gray;
        stroke: #007;
        stroke-miterlimit: 10;
        stroke-width: 7.5px;
      }
    </style>
  </defs>
  <title>Logo-1</title>
  <g>
    <polygon class="a" points="0 161 0 800.2 450.56 960 450.56 0 0 161" />
    <polygon points="903.53 161 903.53 800.2 452.97 960 452.97 0 903.53 161" />
  </g>
  <g>
    <polygon class="b"
      points="307.01 587 273.42 587 273.1 456.75 199.69 530.16 200.01 532.26 91.77 424.01 91.77 371.75 200.01 480 307.01 373 334.39 407.84 307.01 403.3 307.01 555.27 334.39 544.7 307.01 587" />
    <g>
      <polygon class="b" points="349.32 409.08 321.94 374.24 502.36 373 537.19 407.84 349.32 409.08" />
      <path class="b" d="M632.39,538.76H489.31V648.25h37.32V574.84H632.39Z" transform="translate(-141.24 -60)" />
    </g>
    <polygon class="b"
      points="784.39 587 750.8 587 750.48 456.75 677.07 530.16 677.39 532.26 569.14 424.01 516.17 371.75 569.14 371.75 677.39 480 784.39 373 811.76 407.84 784.39 403.3 784.39 555.27 811.76 544.7 784.39 587" />
  </g>
</svg>